<?xml version="1.0" encoding="UTF-8" standalone="no"?>
<!DOCTYPE svg PUBLIC "-//W3C//DTD SVG 1.1//EN"
 "http://www.w3.org/Graphics/SVG/1.1/DTD/svg11.dtd">
<!-- Generated by graphviz version 3.0.0 (20220226.1711)
 -->
<!-- Title: dependencies Pages: 1 -->
<svg width="320pt" height="247pt"
 viewBox="0.00 0.00 320.00 246.80" xmlns="http://www.w3.org/2000/svg" xmlns:xlink="http://www.w3.org/1999/xlink">
<g id="graph0" class="graph" transform="scale(1 1) rotate(0) translate(4 242.8)">
<title>dependencies</title>
<polygon fill="white" stroke="transparent" points="-4,4 -4,-242.8 316,-242.8 316,4 -4,4"/>
<text text-anchor="middle" x="156" y="-8.2" font-family="sans-serif" font-size="14.00">dependencies</text>
<g id="clust1" class="cluster">
<title>cluster_CommonModule</title>
<polygon fill="none" stroke="black" stroke-dasharray="1,5" points="8,-32.8 8,-230.8 304,-230.8 304,-32.8 8,-32.8"/>
</g>
<g id="clust3" class="cluster">
<title>cluster_CommonModule_imports</title>
<polygon fill="none" stroke="black" points="20,-40.8 20,-92.8 292,-92.8 292,-40.8 20,-40.8"/>
</g>
<g id="clust4" class="cluster">
<title>cluster_CommonModule_exports</title>
<polygon fill="none" stroke="black" points="16,-170.8 16,-222.8 296,-222.8 296,-170.8 16,-170.8"/>
</g>
<!-- HttpResponseModule -->
<g id="node1" class="node">
<title>HttpResponseModule</title>
<polygon fill="#8dd3c7" stroke="black" points="284.1,-84.8 281.1,-88.8 260.1,-88.8 257.1,-84.8 145.9,-84.8 145.9,-48.8 284.1,-48.8 284.1,-84.8"/>
<text text-anchor="middle" x="215" y="-62.6" font-family="Times,serif" font-size="14.00">HttpResponseModule</text>
</g>
<!-- CommonModule -->
<g id="node3" class="node">
<title>CommonModule</title>
<polygon fill="#8dd3c7" stroke="black" points="134.67,-149.8 131.67,-153.8 110.67,-153.8 107.67,-149.8 23.33,-149.8 23.33,-113.8 134.67,-113.8 134.67,-149.8"/>
<text text-anchor="middle" x="79" y="-127.6" font-family="Times,serif" font-size="14.00">CommonModule</text>
</g>
<!-- HttpResponseModule&#45;&gt;CommonModule -->
<g id="edge1" class="edge">
<title>HttpResponseModule&#45;&gt;CommonModule</title>
<path fill="none" stroke="black" d="M215.12,-84.91C215.12,-104.14 215.12,-131.8 215.12,-131.8 215.12,-131.8 144.76,-131.8 144.76,-131.8"/>
<polygon fill="black" stroke="black" points="144.76,-128.3 134.76,-131.8 144.76,-135.3 144.76,-128.3"/>
</g>
<!-- LoggerModule -->
<g id="node2" class="node">
<title>LoggerModule</title>
<polygon fill="#8dd3c7" stroke="black" points="127.98,-84.8 124.98,-88.8 103.98,-88.8 100.98,-84.8 28.02,-84.8 28.02,-48.8 127.98,-48.8 127.98,-84.8"/>
<text text-anchor="middle" x="78" y="-62.6" font-family="Times,serif" font-size="14.00">LoggerModule</text>
</g>
<!-- LoggerModule&#45;&gt;CommonModule -->
<g id="edge2" class="edge">
<title>LoggerModule&#45;&gt;CommonModule</title>
<path fill="none" stroke="black" d="M78,-84.91C78,-84.91 78,-103.79 78,-103.79"/>
<polygon fill="black" stroke="black" points="74.5,-103.79 78,-113.79 81.5,-103.79 74.5,-103.79"/>
</g>
<!-- HttpResponseModule  -->
<g id="node4" class="node">
<title>HttpResponseModule </title>
<polygon fill="#fb8072" stroke="black" points="287.6,-214.8 146.4,-214.8 146.4,-178.8 287.6,-178.8 287.6,-214.8"/>
<text text-anchor="middle" x="217" y="-192.6" font-family="Times,serif" font-size="14.00">HttpResponseModule </text>
</g>
<!-- CommonModule&#45;&gt;HttpResponseModule  -->
<g id="edge3" class="edge">
<title>CommonModule&#45;&gt;HttpResponseModule </title>
<path fill="none" stroke="black" stroke-dasharray="5,2" d="M131.29,-149.91C131.29,-169.14 131.29,-196.8 131.29,-196.8 131.29,-196.8 136.22,-196.8 136.22,-196.8"/>
<polygon fill="black" stroke="black" points="136.22,-200.3 146.22,-196.8 136.22,-193.3 136.22,-200.3"/>
</g>
<!-- LoggerModule  -->
<g id="node5" class="node">
<title>LoggerModule </title>
<polygon fill="#fb8072" stroke="black" points="127.98,-214.8 24.02,-214.8 24.02,-178.8 127.98,-178.8 127.98,-214.8"/>
<text text-anchor="middle" x="76" y="-192.6" font-family="Times,serif" font-size="14.00">LoggerModule </text>
</g>
<!-- CommonModule&#45;&gt;LoggerModule  -->
<g id="edge4" class="edge">
<title>CommonModule&#45;&gt;LoggerModule </title>
<path fill="none" stroke="black" stroke-dasharray="5,2" d="M76,-149.91C76,-149.91 76,-168.79 76,-168.79"/>
<polygon fill="black" stroke="black" points="72.5,-168.79 76,-178.79 79.5,-168.79 72.5,-168.79"/>
</g>
</g>
</svg>
