<?xml version="1.0" encoding="UTF-8" standalone="no"?>
<!DOCTYPE svg PUBLIC "-//W3C//DTD SVG 1.1//EN"
 "http://www.w3.org/Graphics/SVG/1.1/DTD/svg11.dtd">
<!-- Generated by graphviz version 3.0.0 (20220226.1711)
 -->
<!-- Title: dependencies Pages: 1 -->
<svg width="332pt" height="247pt"
 viewBox="0.00 0.00 332.00 246.80" xmlns="http://www.w3.org/2000/svg" xmlns:xlink="http://www.w3.org/1999/xlink">
<g id="graph0" class="graph" transform="scale(1 1) rotate(0) translate(4 242.8)">
<title>dependencies</title>
<polygon fill="white" stroke="transparent" points="-4,4 -4,-242.8 328,-242.8 328,4 -4,4"/>
<text text-anchor="middle" x="162" y="-8.2" font-family="sans-serif" font-size="14.00">dependencies</text>
<g id="clust1" class="cluster">
<title>cluster_SudokuModule</title>
<polygon fill="none" stroke="black" stroke-dasharray="1,5" points="8,-32.8 8,-230.8 316,-230.8 316,-32.8 8,-32.8"/>
</g>
<g id="clust3" class="cluster">
<title>cluster_SudokuModule_imports</title>
<polygon fill="none" stroke="black" points="180,-40.8 180,-92.8 308,-92.8 308,-40.8 180,-40.8"/>
</g>
<g id="clust4" class="cluster">
<title>cluster_SudokuModule_exports</title>
<polygon fill="none" stroke="black" points="109,-170.8 109,-222.8 229,-222.8 229,-170.8 109,-170.8"/>
</g>
<g id="clust6" class="cluster">
<title>cluster_SudokuModule_providers</title>
<polygon fill="none" stroke="black" points="16,-40.8 16,-92.8 172,-92.8 172,-40.8 16,-40.8"/>
</g>
<!-- CommonModule -->
<g id="node1" class="node">
<title>CommonModule</title>
<polygon fill="#8dd3c7" stroke="black" points="299.67,-84.8 296.67,-88.8 275.67,-88.8 272.67,-84.8 188.33,-84.8 188.33,-48.8 299.67,-48.8 299.67,-84.8"/>
<text text-anchor="middle" x="244" y="-62.6" font-family="Times,serif" font-size="14.00">CommonModule</text>
</g>
<!-- SudokuModule -->
<g id="node2" class="node">
<title>SudokuModule</title>
<polygon fill="#8dd3c7" stroke="black" points="220.34,-149.8 217.34,-153.8 196.34,-153.8 193.34,-149.8 117.66,-149.8 117.66,-113.8 220.34,-113.8 220.34,-149.8"/>
<text text-anchor="middle" x="169" y="-127.6" font-family="Times,serif" font-size="14.00">SudokuModule</text>
</g>
<!-- CommonModule&#45;&gt;SudokuModule -->
<g id="edge1" class="edge">
<title>CommonModule&#45;&gt;SudokuModule</title>
<path fill="none" stroke="black" d="M204.17,-84.91C204.17,-84.91 204.17,-103.79 204.17,-103.79"/>
<polygon fill="black" stroke="black" points="200.67,-103.79 204.17,-113.79 207.67,-103.79 200.67,-103.79"/>
</g>
<!-- SudokuService  -->
<g id="node3" class="node">
<title>SudokuService </title>
<polygon fill="#fb8072" stroke="black" points="221.27,-214.8 116.73,-214.8 116.73,-178.8 221.27,-178.8 221.27,-214.8"/>
<text text-anchor="middle" x="169" y="-192.6" font-family="Times,serif" font-size="14.00">SudokuService </text>
</g>
<!-- SudokuModule&#45;&gt;SudokuService  -->
<g id="edge2" class="edge">
<title>SudokuModule&#45;&gt;SudokuService </title>
<path fill="none" stroke="black" stroke-dasharray="5,2" d="M169,-149.91C169,-149.91 169,-168.79 169,-168.79"/>
<polygon fill="black" stroke="black" points="165.5,-168.79 169,-178.79 172.5,-168.79 165.5,-168.79"/>
</g>
<!-- SudokuService -->
<g id="node4" class="node">
<title>SudokuService</title>
<ellipse fill="#fdb462" stroke="black" cx="94" cy="-66.8" rx="69.51" ry="18"/>
<text text-anchor="middle" x="94" y="-62.6" font-family="Times,serif" font-size="14.00">SudokuService</text>
</g>
<!-- SudokuService&#45;&gt;SudokuModule -->
<g id="edge3" class="edge">
<title>SudokuService&#45;&gt;SudokuModule</title>
<path fill="none" stroke="black" d="M140.67,-80.27C140.67,-80.27 140.67,-103.66 140.67,-103.66"/>
<polygon fill="black" stroke="black" points="137.17,-103.66 140.67,-113.66 144.17,-103.66 137.17,-103.66"/>
</g>
</g>
</svg>
