<?xml version="1.0" encoding="UTF-8" standalone="no"?>
<!DOCTYPE svg PUBLIC "-//W3C//DTD SVG 1.1//EN"
 "http://www.w3.org/Graphics/SVG/1.1/DTD/svg11.dtd">
<!-- Generated by graphviz version 3.0.0 (20220226.1711)
 -->
<!-- Title: dependencies Pages: 1 -->
<svg width="1076pt" height="261pt"
 viewBox="0.00 0.00 1076.00 260.80" xmlns="http://www.w3.org/2000/svg" xmlns:xlink="http://www.w3.org/1999/xlink">
<g id="graph0" class="graph" transform="scale(1 1) rotate(0) translate(4 256.8)">
<title>dependencies</title>
<polygon fill="white" stroke="transparent" points="-4,4 -4,-256.8 1072,-256.8 1072,4 -4,4"/>
<text text-anchor="middle" x="534" y="-8.2" font-family="sans-serif" font-size="14.00">dependencies</text>
<g id="clust1" class="cluster">
<title>cluster_AppModule</title>
<polygon fill="none" stroke="black" stroke-dasharray="1,5" points="8,-32.8 8,-160.8 152,-160.8 152,-32.8 8,-32.8"/>
</g>
<g id="clust3" class="cluster">
<title>cluster_AppModule_imports</title>
<polygon fill="none" stroke="black" points="16,-40.8 16,-92.8 144,-92.8 144,-40.8 16,-40.8"/>
</g>
<g id="clust7" class="cluster">
<title>cluster_CommonModule</title>
<polygon fill="none" stroke="black" stroke-dasharray="1,5" points="160,-100.8 160,-168.8 736,-168.8 736,-100.8 160,-100.8"/>
</g>
<g id="clust9" class="cluster">
<title>cluster_CommonModule_imports</title>
<polygon fill="none" stroke="black" points="456,-108.8 456,-160.8 728,-160.8 728,-108.8 456,-108.8"/>
</g>
<g id="clust10" class="cluster">
<title>cluster_CommonModule_exports</title>
<polygon fill="none" stroke="black" points="168,-108.8 168,-160.8 448,-160.8 448,-108.8 168,-108.8"/>
</g>
<g id="clust19" class="cluster">
<title>cluster_HttpResponseModule</title>
<polygon fill="none" stroke="black" stroke-dasharray="1,5" points="194,-176.8 194,-244.8 578,-244.8 578,-176.8 194,-176.8"/>
</g>
<g id="clust22" class="cluster">
<title>cluster_HttpResponseModule_exports</title>
<polygon fill="none" stroke="black" points="414,-184.8 414,-236.8 570,-236.8 570,-184.8 414,-184.8"/>
</g>
<g id="clust24" class="cluster">
<title>cluster_HttpResponseModule_providers</title>
<polygon fill="none" stroke="black" points="202,-184.8 202,-236.8 406,-236.8 406,-184.8 202,-184.8"/>
</g>
<g id="clust25" class="cluster">
<title>cluster_LoggerModule</title>
<polygon fill="none" stroke="black" stroke-dasharray="1,5" points="586,-176.8 586,-244.8 880,-244.8 880,-176.8 586,-176.8"/>
</g>
<g id="clust28" class="cluster">
<title>cluster_LoggerModule_exports</title>
<polygon fill="none" stroke="black" points="754,-184.8 754,-236.8 872,-236.8 872,-184.8 754,-184.8"/>
</g>
<g id="clust30" class="cluster">
<title>cluster_LoggerModule_providers</title>
<polygon fill="none" stroke="black" points="594,-184.8 594,-236.8 746,-236.8 746,-184.8 594,-184.8"/>
</g>
<g id="clust37" class="cluster">
<title>cluster_SudokuModule</title>
<polygon fill="none" stroke="black" stroke-dasharray="1,5" points="888,-32.8 888,-244.8 1060,-244.8 1060,-32.8 888,-32.8"/>
</g>
<g id="clust40" class="cluster">
<title>cluster_SudokuModule_exports</title>
<polygon fill="none" stroke="black" points="905,-184.8 905,-236.8 1025,-236.8 1025,-184.8 905,-184.8"/>
</g>
<g id="clust42" class="cluster">
<title>cluster_SudokuModule_providers</title>
<polygon fill="none" stroke="black" points="896,-40.8 896,-92.8 1052,-92.8 1052,-40.8 896,-40.8"/>
</g>
<!-- CommonModule -->
<g id="node1" class="node">
<title>CommonModule</title>
<polygon fill="#8dd3c7" stroke="black" points="135.67,-84.8 132.67,-88.8 111.67,-88.8 108.67,-84.8 24.33,-84.8 24.33,-48.8 135.67,-48.8 135.67,-84.8"/>
<text text-anchor="middle" x="80" y="-62.6" font-family="Times,serif" font-size="14.00">CommonModule</text>
</g>
<!-- AppModule -->
<g id="node2" class="node">
<title>AppModule</title>
<polygon fill="#8dd3c7" stroke="black" points="121.66,-152.8 118.66,-156.8 97.66,-156.8 94.66,-152.8 38.34,-152.8 38.34,-116.8 121.66,-116.8 121.66,-152.8"/>
<text text-anchor="middle" x="80" y="-130.6" font-family="Times,serif" font-size="14.00">AppModule</text>
</g>
<!-- CommonModule&#45;&gt;AppModule -->
<g id="edge1" class="edge">
<title>CommonModule&#45;&gt;AppModule</title>
<path fill="none" stroke="black" d="M80,-85.02C80,-85.02 80,-106.53 80,-106.53"/>
<polygon fill="black" stroke="black" points="76.5,-106.53 80,-116.53 83.5,-106.53 76.5,-106.53"/>
</g>
<!-- HttpResponseModule  -->
<g id="node5" class="node">
<title>HttpResponseModule </title>
<polygon fill="#fb8072" stroke="black" points="439.6,-152.8 298.4,-152.8 298.4,-116.8 439.6,-116.8 439.6,-152.8"/>
<text text-anchor="middle" x="369" y="-130.6" font-family="Times,serif" font-size="14.00">HttpResponseModule </text>
</g>
<!-- CommonModule&#45;&gt;HttpResponseModule  -->
<g id="edge4" class="edge">
<title>CommonModule&#45;&gt;HttpResponseModule </title>
<path fill="none" stroke="black" stroke-dasharray="5,2" d="M135.72,-77.8C219.7,-77.8 369,-77.8 369,-77.8 369,-77.8 369,-106.76 369,-106.76"/>
<polygon fill="black" stroke="black" points="365.5,-106.76 369,-116.76 372.5,-106.76 365.5,-106.76"/>
</g>
<!-- LoggerModule  -->
<g id="node6" class="node">
<title>LoggerModule </title>
<polygon fill="#fb8072" stroke="black" points="279.98,-152.8 176.02,-152.8 176.02,-116.8 279.98,-116.8 279.98,-152.8"/>
<text text-anchor="middle" x="228" y="-130.6" font-family="Times,serif" font-size="14.00">LoggerModule </text>
</g>
<!-- CommonModule&#45;&gt;LoggerModule  -->
<g id="edge5" class="edge">
<title>CommonModule&#45;&gt;LoggerModule </title>
<path fill="none" stroke="black" stroke-dasharray="5,2" d="M128.83,-85.02C128.83,-105.17 128.83,-134.8 128.83,-134.8 128.83,-134.8 166.09,-134.8 166.09,-134.8"/>
<polygon fill="black" stroke="black" points="166.09,-138.3 176.09,-134.8 166.09,-131.3 166.09,-138.3"/>
</g>
<!-- SudokuModule -->
<g id="node11" class="node">
<title>SudokuModule</title>
<polygon fill="#8dd3c7" stroke="black" points="1016.34,-152.8 1013.34,-156.8 992.34,-156.8 989.34,-152.8 913.66,-152.8 913.66,-116.8 1016.34,-116.8 1016.34,-152.8"/>
<text text-anchor="middle" x="965" y="-130.6" font-family="Times,serif" font-size="14.00">SudokuModule</text>
</g>
<!-- CommonModule&#45;&gt;SudokuModule -->
<g id="edge10" class="edge">
<title>CommonModule&#45;&gt;SudokuModule</title>
<path fill="none" stroke="black" d="M135.89,-56.8C293.3,-56.8 728.93,-56.8 728.93,-56.8 728.93,-56.8 728.93,-128.8 728.93,-128.8 728.93,-128.8 903.78,-128.8 903.78,-128.8"/>
<polygon fill="black" stroke="black" points="903.78,-132.3 913.78,-128.8 903.78,-125.3 903.78,-132.3"/>
</g>
<!-- HttpResponseModule -->
<g id="node3" class="node">
<title>HttpResponseModule</title>
<polygon fill="#8dd3c7" stroke="black" points="602.1,-152.8 599.1,-156.8 578.1,-156.8 575.1,-152.8 463.9,-152.8 463.9,-116.8 602.1,-116.8 602.1,-152.8"/>
<text text-anchor="middle" x="533" y="-130.6" font-family="Times,serif" font-size="14.00">HttpResponseModule</text>
</g>
<!-- HttpResponseModule&#45;&gt;CommonModule -->
<g id="edge2" class="edge">
<title>HttpResponseModule&#45;&gt;CommonModule</title>
<path fill="none" stroke="black" d="M533,-116.63C533,-97.71 533,-70.8 533,-70.8 533,-70.8 146,-70.8 146,-70.8"/>
<polygon fill="black" stroke="black" points="146,-67.3 136,-70.8 146,-74.3 146,-67.3"/>
</g>
<!-- HttpResponseService  -->
<g id="node7" class="node">
<title>HttpResponseService </title>
<polygon fill="#fb8072" stroke="black" points="562.03,-228.8 421.97,-228.8 421.97,-192.8 562.03,-192.8 562.03,-228.8"/>
<text text-anchor="middle" x="492" y="-206.6" font-family="Times,serif" font-size="14.00">HttpResponseService </text>
</g>
<!-- HttpResponseModule&#45;&gt;HttpResponseService  -->
<g id="edge6" class="edge">
<title>HttpResponseModule&#45;&gt;HttpResponseService </title>
<path fill="none" stroke="black" stroke-dasharray="5,2" d="M529.33,-152.81C529.33,-152.81 529.33,-182.65 529.33,-182.65"/>
<polygon fill="black" stroke="black" points="525.83,-182.65 529.33,-192.65 532.83,-182.65 525.83,-182.65"/>
</g>
<!-- LoggerModule -->
<g id="node4" class="node">
<title>LoggerModule</title>
<polygon fill="#8dd3c7" stroke="black" points="719.98,-152.8 716.98,-156.8 695.98,-156.8 692.98,-152.8 620.02,-152.8 620.02,-116.8 719.98,-116.8 719.98,-152.8"/>
<text text-anchor="middle" x="670" y="-130.6" font-family="Times,serif" font-size="14.00">LoggerModule</text>
</g>
<!-- LoggerModule&#45;&gt;CommonModule -->
<g id="edge3" class="edge">
<title>LoggerModule&#45;&gt;CommonModule</title>
<path fill="none" stroke="black" d="M670,-116.52C670,-95.48 670,-63.8 670,-63.8 670,-63.8 145.77,-63.8 145.77,-63.8"/>
<polygon fill="black" stroke="black" points="145.77,-60.3 135.77,-63.8 145.77,-67.3 145.77,-60.3"/>
</g>
<!-- LoggerService  -->
<g id="node9" class="node">
<title>LoggerService </title>
<polygon fill="#fb8072" stroke="black" points="863.91,-228.8 762.09,-228.8 762.09,-192.8 863.91,-192.8 863.91,-228.8"/>
<text text-anchor="middle" x="813" y="-206.6" font-family="Times,serif" font-size="14.00">LoggerService </text>
</g>
<!-- LoggerModule&#45;&gt;LoggerService  -->
<g id="edge8" class="edge">
<title>LoggerModule&#45;&gt;LoggerService </title>
<path fill="none" stroke="black" stroke-dasharray="5,2" d="M720.01,-140.8C761.25,-140.8 813,-140.8 813,-140.8 813,-140.8 813,-182.77 813,-182.77"/>
<polygon fill="black" stroke="black" points="809.5,-182.77 813,-192.77 816.5,-182.77 809.5,-182.77"/>
</g>
<!-- HttpResponseService -->
<g id="node8" class="node">
<title>HttpResponseService</title>
<ellipse fill="#fdb462" stroke="black" cx="304" cy="-210.8" rx="94.35" ry="18"/>
<text text-anchor="middle" x="304" y="-206.6" font-family="Times,serif" font-size="14.00">HttpResponseService</text>
</g>
<!-- HttpResponseService&#45;&gt;HttpResponseModule -->
<g id="edge7" class="edge">
<title>HttpResponseService&#45;&gt;HttpResponseModule</title>
<path fill="none" stroke="black" d="M348.19,-194.46C348.19,-184.16 348.19,-172.8 348.19,-172.8 348.19,-172.8 496.64,-172.8 496.64,-172.8 496.64,-172.8 496.64,-162.91 496.64,-162.91"/>
<polygon fill="black" stroke="black" points="500.14,-162.91 496.64,-152.91 493.14,-162.91 500.14,-162.91"/>
</g>
<!-- LoggerService -->
<g id="node10" class="node">
<title>LoggerService</title>
<ellipse fill="#fdb462" stroke="black" cx="670" cy="-210.8" rx="67.76" ry="18"/>
<text text-anchor="middle" x="670" y="-206.6" font-family="Times,serif" font-size="14.00">LoggerService</text>
</g>
<!-- LoggerService&#45;&gt;LoggerModule -->
<g id="edge9" class="edge">
<title>LoggerService&#45;&gt;LoggerModule</title>
<path fill="none" stroke="black" d="M670,-192.79C670,-192.79 670,-162.95 670,-162.95"/>
<polygon fill="black" stroke="black" points="673.5,-162.95 670,-152.95 666.5,-162.95 673.5,-162.95"/>
</g>
<!-- SudokuService  -->
<g id="node12" class="node">
<title>SudokuService </title>
<polygon fill="#fb8072" stroke="black" points="1017.27,-228.8 912.73,-228.8 912.73,-192.8 1017.27,-192.8 1017.27,-228.8"/>
<text text-anchor="middle" x="965" y="-206.6" font-family="Times,serif" font-size="14.00">SudokuService </text>
</g>
<!-- SudokuModule&#45;&gt;SudokuService  -->
<g id="edge11" class="edge">
<title>SudokuModule&#45;&gt;SudokuService </title>
<path fill="none" stroke="black" stroke-dasharray="5,2" d="M965,-152.81C965,-152.81 965,-182.65 965,-182.65"/>
<polygon fill="black" stroke="black" points="961.5,-182.65 965,-192.65 968.5,-182.65 961.5,-182.65"/>
</g>
<!-- SudokuService -->
<g id="node13" class="node">
<title>SudokuService</title>
<ellipse fill="#fdb462" stroke="black" cx="974" cy="-66.8" rx="69.51" ry="18"/>
<text text-anchor="middle" x="974" y="-62.6" font-family="Times,serif" font-size="14.00">SudokuService</text>
</g>
<!-- SudokuService&#45;&gt;SudokuModule -->
<g id="edge12" class="edge">
<title>SudokuService&#45;&gt;SudokuModule</title>
<path fill="none" stroke="black" d="M965,-84.67C965,-84.67 965,-106.34 965,-106.34"/>
<polygon fill="black" stroke="black" points="961.5,-106.34 965,-116.34 968.5,-106.34 961.5,-106.34"/>
</g>
</g>
</svg>
